Coordinates
version=1
nRows=16
nColumns=36
inDegrees=yes

Units are S.I. units (second, meters, Newtons, ...)
If the header above contains a line with 'inDegrees', this indicates whether rotational values are in degrees (yes) or radians (no).

endheader
time	pelvis_tilt	pelvis_list	pelvis_rotation	pelvis_tx	pelvis_ty	pelvis_tz	hip_flexion_r	hip_adduction_r	hip_rotation_r	knee_angle_r	knee_angle_r_beta	ankle_angle_r	subtalar_angle_r	mtp_angle_r	hip_flexion_l	hip_adduction_l	hip_rotation_l	knee_angle_l	knee_angle_l_beta	ankle_angle_l	subtalar_angle_l	mtp_angle_l	lumbar_extension	lumbar_bending	lumbar_rotation	arm_flex_r	arm_add_r	arm_rot_r	elbow_flex_r	pro_sup_r	arm_flex_l	arm_add_l	arm_rot_l	elbow_flex_l	pro_sup_l
      1.18333330	      0.14378964	      1.59774115	      7.28842237	      0.04445421	      1.29144210	      0.09206525	     -0.88648143	     -5.68111877	      6.79779948	      4.23464914	      0.07390857	      3.13605224	    -13.00916177	     -7.49999957	      1.08044981	      1.75410187	      2.32329936	     11.55668691	      0.20170224	      9.50217756	    -15.09627287	     -7.49999957	     -9.53384829	     -2.71829135	      3.09467315	      6.74108269	     -4.62174923	     17.31916603	     31.00352819	     78.05415251	      8.47036511	     -4.93998867	      1.21249869	     29.05472122	     84.42957651
      1.20000000	      0.05038990	      1.63873094	      7.28976860	      0.03855909	      1.29199661	      0.08858220	     -0.75821231	     -5.79266183	      6.76823678	      4.24976679	      0.07417242	      3.12396341	    -13.01243997	     -7.49999957	      1.26473764	      1.89796964	      2.21745919	     11.49791390	      0.20067645	      9.61732495	    -15.19227525	     -7.49999957	     -9.83566716	     -2.67091039	      2.98726689	      6.53088021	     -4.80470886	     17.29008753	     30.88233584	     78.05737872	      8.49345070	     -4.94693149	      1.22161487	     29.06611899	     84.44406831
      1.21666670	     -0.23428601	      1.77396841	      7.25871455	      0.03767816	      1.29167600	      0.08856908	     -0.17906160	     -6.01677080	      6.72372934	      4.57340674	      0.07982101	      3.42041977	    -12.77831129	     -7.49999959	      1.90672706	      2.15729949	      2.05020476	     11.88354311	      0.20740695	     10.00646577	    -15.66074102	     -7.49999959	    -10.07923810	     -2.88453427	      3.21067886	      6.13500961	     -4.97470450	     16.54213927	     30.70407070	     77.20496269	      8.48707480	     -4.97832571	      1.51311433	     29.92605026	     83.66259229
      1.23333330	     -0.44817086	      1.83291710	      7.29797628	      0.03835735	      1.29232713	      0.08871420	      0.16356575	     -6.16071667	      6.61907061	      4.71764634	      0.08233846	      3.63990244	    -12.47322299	     -7.49999963	      2.31357072	      2.29531111	      1.91958360	     12.11711325	      0.21148352	      9.91321396	    -16.03643105	     -7.49999963	    -10.31889981	     -2.94676362	      3.16061308	      5.75258070	     -5.10597576	     15.89733086	     30.37751108	     75.99503335	      8.48072288	     -5.02219568	      1.93822333	     30.15943086	     82.43167180
      1.25000000	     -1.12709735	      1.82549668	      7.14281322	      0.03176861	      1.29444164	      0.09169502	      1.32900246	     -6.23052113	      6.78998214	      5.09150230	      0.08886348	      4.01222267	    -12.30122687	     -7.49999963	      3.41106519	      2.43535540	      1.71224377	     12.49517155	      0.21808188	      9.83781976	    -16.46165405	     -7.49999963	    -10.14634020	     -3.02862124	      3.37550937	      5.30157201	     -5.28843427	     15.30443715	     29.98470080	     76.52854328	      8.45761552	     -5.29492867	      2.56324258	     30.22439105	     83.40702547
      1.26666670	     -1.17774178	      1.92479212	      7.13945304	      0.03228766	      1.29480714	      0.09175431	      1.54442664	     -6.34157432	      6.79855150	      5.18821644	      0.09055146	      3.90753857	    -12.25824575	     -7.49999974	      3.69826147	      2.51690080	      1.28746824	     12.72254542	      0.22205031	      9.62213041	    -16.68822016	     -7.49999974	    -10.98279509	     -3.14547450	      3.54116367	      4.37719013	     -5.14177529	     11.73914262	     29.72746834	     82.64287514	      8.37007302	     -5.35556256	      1.34659727	     29.68709638	     90.30450088
      1.28333330	     -1.44328777	      2.02035985	      6.98358706	      0.03162015	      1.29743168	      0.09159814	      2.05325513	     -6.47836782	      6.59871335	      5.43649651	      0.09488476	      4.03018938	    -11.67617954	     -7.49999976	      4.14286337	      2.60295313	      0.72512563	     12.90833701	      0.22529298	      9.46353021	    -16.70619601	     -7.49999976	    -11.72195187	     -3.27881639	      3.43367921	      3.62506062	     -5.38907241	     11.35156765	     29.53879412	     80.22833655	      7.59717383	     -5.61557548	      0.84213986	     29.85056196	     87.43130874
      1.30000000	     -2.10471581	      1.96098034	      6.90216802	      0.02569273	      1.29710983	      0.09494979	      3.21111928	     -6.38412934	      6.90476154	      5.82013360	      0.10158049	      4.02427324	    -11.84734353	     -7.49999976	      5.34368611	      2.55869759	      0.44062667	     13.47867655	      0.23524728	      9.04504353	    -17.33401461	     -7.49999976	    -12.10142184	     -3.32461405	      3.32457105	      2.79331534	     -5.63555653	     10.92250185	     29.03342605	     80.42915690	      6.76971260	     -6.03050511	      0.55151022	     29.46768891	     87.67883616
      1.31666670	     -2.26440076	      2.01647675	      6.91666163	      0.03233858	      1.29971799	      0.09160188	      3.43316240	     -6.43852008	      6.93522564	      5.85605942	      0.10220752	      3.87785973	    -11.74202735	     -7.49999976	      5.69656789	      2.57566596	      0.20062798	     13.79349812	      0.24074196	      8.66867915	    -17.30762040	     -7.49999976	    -13.07522740	     -3.39212497	      3.21486240	      1.73709436	     -6.16910381	     10.75271336	     28.56345449	     80.43720369	      5.70205267	     -6.35700174	      0.44172909	     29.04277309	     87.70651221
      1.33333330	     -2.82914183	      1.87614127	      7.00193194	      0.03310745	      1.29591668	      0.09178298	      4.22481360	     -6.31578192	      6.82644736	      6.07917240	      0.10610157	      4.36384061	    -11.24269723	     -7.49999980	      6.63822883	      2.46198609	      0.00902285	     14.32639848	      0.25004282	      8.67543417	    -17.29375851	     -7.49999980	    -13.52779701	     -3.30186713	      2.96396356	      0.44038867	     -6.10492951	      6.54630981	     28.29728742	     85.37570438	      3.60936389	     -6.13799332	     -4.14179368	     29.74966358	     93.02943746
      1.35000000	     -3.27268567	      1.79531023	      7.09032741	      0.02538140	      1.29183194	      0.09473391	      4.98433811	     -6.23181447	      6.86629464	      6.36512740	      0.11109243	      4.63866028	    -11.31806384	     -7.49999980	      7.50877443	      2.35662853	     -0.25451091	     14.78903777	      0.25811740	      8.90166666	    -17.00366061	     -7.49999980	    -14.09770642	     -3.39127511	      2.90471089	     -0.83584030	     -6.56429444	      6.03757151	     27.48943490	     83.50744937	      2.04391933	     -6.51924765	     -5.09493889	     29.57682883	     91.03204256
      1.36666670	     -3.40924784	      1.81716733	      7.23776139	      0.02683110	      1.29853661	      0.09441472	      5.25123484	     -6.22511525	      6.83370694	      6.47032183	      0.11292842	      4.75177595	    -11.32700297	     -7.49999980	      7.90147097	      2.39419199	     -0.20625325	     14.99887612	      0.26177977	      8.73569355	    -16.86909691	     -7.49999980	    -15.29213026	     -3.45156904	      3.03528296	     -2.38759386	     -7.30371617	      5.89443806	     26.79468329	     83.48887126	      0.39297155	     -7.17410681	     -5.30968401	     28.96112002	     91.01701439
      1.38333330	     -3.97719626	      1.72811629	      7.54088646	      0.02626961	      1.29723482	      0.09425359	      6.04519464	     -6.18548877	      6.51036582	      6.76684250	      0.11810368	      5.14683313	    -11.19096075	     -7.49999981	      8.88895836	      2.33309039	     -0.29349759	     15.41780640	      0.26909149	      8.88710503	    -16.45016209	     -7.49999981	    -16.01498480	     -3.50341626	      2.88661430	     -3.74234802	     -7.74546046	      4.93814429	     25.76772228	     81.85868491	     -1.66280062	     -7.48951956	     -6.84296379	     28.11804393	     89.31054372
      1.40000000	     -4.61646466	      1.61880206	      7.86023452	      0.02750788	      1.29361869	      0.09411893	      6.89105102	     -6.17000889	      5.98192654	      7.16591861	      0.12506887	      5.24039458	    -11.28255053	     -7.49999982	      9.98500098	      2.26693970	     -0.31571862	     16.16553830	      0.28214187	      9.50885123	    -15.71418303	     -7.49999982	    -16.68728582	     -3.52543252	      2.76841655	     -5.46602767	     -8.18295691	      4.02692997	     24.99398994	     81.16935166	     -3.45281356	     -7.86310428	     -8.71087907	     26.42408151	     88.19769827
      1.41666670	     -5.48452901	      1.51252528	      7.96432711	      0.02725709	      1.29245496	      0.09432371	      8.21307967	     -6.17798551	      5.67491555	      7.94191771	      0.13861261	      5.42626937	    -11.40328065	     -7.49999984	     11.20990096	      2.22072882	     -0.48164350	     16.81225869	      0.29342927	      9.88406660	    -15.17988281	     -7.49999984	    -17.22608780	     -3.82817473	      2.58488836	     -7.17204148	     -8.53402754	      1.55532626	     24.91331165	     86.32871861	     -5.35279192	     -7.82845465	    -15.14607069	     25.03672457	     93.17806277
      1.43333330	     -6.88913179	      1.39307556	      7.95350231	      0.01484754	      1.28504266	      0.09435033	     10.55228637	     -6.22965388	      5.33372058	      9.08273122	      0.15852356	      5.79446680	    -11.46206545	     -7.49999984	     13.31830112	      2.29286860	     -0.60237344	     17.60375030	      0.30724340	     10.31903950	    -14.93001277	     -7.49999984	    -17.61385683	     -4.05874394	      2.54057272	     -9.07158117	     -9.30765739	      1.06275102	     25.82091517	     85.84769300	     -8.08563473	     -8.39334181	    -16.07693904	     22.75211213	     92.49452306
